<?xml version="1.0" standalone="no"?>
<!DOCTYPE svg PUBLIC "-//W3C//DTD SVG 20010904//EN"
 "http://www.w3.org/TR/2001/REC-SVG-20010904/DTD/svg10.dtd">
<svg version="1.0" xmlns="http://www.w3.org/2000/svg"
 width="2048.000000pt" height="2048.000000pt" viewBox="0 0 2048.000000 2048.000000"
 preserveAspectRatio="xMidYMid meet">
<metadata>
Created by potrace 1.16, written by Peter Selinger 2001-2019
</metadata>
<g transform="translate(0.000000,2048.000000) scale(0.100000,-0.100000)"
fill="#000000" stroke="none">
<path d="M20450 20476 c0 -2 7 -9 15 -16 12 -10 15 -10 15 4 0 9 -7 16 -15 16
-8 0 -15 -2 -15 -4z"/>
<path d="M9740 17679 c-163 -11 -350 -28 -425 -39 -33 -5 -98 -14 -145 -20
-233 -29 -660 -106 -805 -145 -458 -123 -882 -263 -1120 -370 -16 -8 -88 -39
-160 -70 -169 -74 -323 -151 -595 -298 -201 -109 -692 -424 -849 -545 -26 -20
-77 -59 -112 -87 -194 -149 -316 -255 -594 -515 -116 -108 -341 -345 -475
-500 -36 -41 -67 -77 -70 -80 -3 -3 -50 -61 -105 -130 -405 -506 -783 -1115
-1015 -1635 -164 -368 -302 -752 -381 -1061 -121 -474 -134 -536 -183 -844
-75 -471 -91 -720 -83 -1255 9 -576 33 -796 147 -1345 69 -331 140 -593 256
-940 166 -494 453 -1086 748 -1545 162 -251 298 -447 425 -610 385 -494 845
-966 1262 -1292 224 -175 562 -406 791 -540 920 -538 1785 -829 2926 -983 416
-57 835 -78 1187 -61 384 18 518 31 895 88 734 109 1351 284 1970 558 58 25
128 56 155 68 28 11 129 61 225 110 618 316 1094 641 1555 1061 653 596 1182
1273 1612 2066 124 229 166 311 224 442 283 630 464 1265 568 1993 76 539 76
534 76 1035 -1 602 -17 776 -134 1420 -119 664 -313 1248 -607 1830 -202 401
-320 602 -549 935 -83 122 -193 275 -237 332 -18 23 -52 67 -76 98 -223 290
-695 789 -962 1015 -35 30 -76 65 -90 76 -41 35 -116 98 -136 114 -246 197
-298 236 -494 367 -357 239 -806 494 -1120 636 -19 9 -75 34 -123 56 -49 23
-91 41 -93 41 -2 0 -23 8 -47 19 -108 47 -169 72 -252 101 -168 59 -330 112
-400 131 -38 11 -95 27 -125 35 -83 23 -240 65 -280 74 -134 31 -320 70 -380
79 -30 5 -89 16 -130 24 -449 89 -1203 136 -1670 106z m-22 -1103 c1 -88 -1
-163 -6 -168 -4 -4 -62 -13 -128 -18 -181 -15 -398 -41 -499 -60 -33 -6 -85
-15 -115 -20 -176 -27 -588 -135 -815 -214 -342 -118 -782 -316 -1034 -466
-248 -147 -578 -376 -816 -565 -137 -109 -438 -377 -525 -466 -395 -406 -648
-723 -924 -1157 -64 -100 -116 -184 -116 -186 0 -2 -28 -51 -61 -108 -77 -129
-235 -444 -283 -563 -21 -49 -44 -105 -52 -123 -19 -42 -115 -315 -159 -452
-122 -381 -201 -774 -251 -1240 -22 -204 -26 -950 -6 -1115 35 -295 43 -355
57 -425 9 -41 29 -144 45 -228 39 -199 89 -395 145 -573 46 -144 57 -176 113
-324 66 -175 84 -216 157 -370 202 -424 279 -561 533 -950 305 -466 782 -984
1252 -1360 198 -158 607 -440 795 -547 306 -175 706 -364 940 -445 280 -97
673 -213 720 -213 9 0 14 141 19 633 6 566 5 639 -9 702 -42 177 -165 313
-338 372 l-69 23 -1095 0 -1096 0 -170 169 c-158 158 -191 203 -141 192 10 -2
595 -7 1299 -11 877 -5 1294 -10 1325 -18 150 -37 248 -82 367 -171 97 -71
158 -145 217 -261 83 -164 79 -121 85 -960 l6 -745 100 -17 c55 -9 115 -17
133 -18 l32 0 0 505 c0 459 -2 509 -17 538 -46 86 -56 176 -27 260 21 61 83
130 136 152 52 21 153 24 199 5 52 -20 95 -56 129 -105 59 -86 52 -239 -16
-322 l-34 -41 0 -676 c0 -693 0 -687 -37 -692 -29 -5 -381 27 -508 45 -296 43
-659 120 -875 187 -505 155 -811 274 -1182 460 -264 132 -723 420 -983 617
-352 266 -767 664 -1052 1007 -122 147 -473 625 -473 644 0 3 -20 33 -44 68
-103 148 -329 560 -421 768 -202 455 -332 840 -419 1240 -123 568 -156 865
-157 1415 -2 633 46 1026 191 1600 119 470 231 777 434 1190 238 486 457 838
790 1270 367 477 859 953 1326 1283 207 147 574 382 715 459 204 112 524 263
641 304 29 10 102 39 161 63 204 83 555 190 768 236 33 7 74 16 90 20 17 4 59
13 95 20 36 6 83 15 105 20 49 11 86 17 190 30 44 6 116 16 160 21 84 12 426
38 460 35 19 -1 20 -9 23 -160z m3287 -527 c66 -29 127 -58 135 -64 8 -7 71
-45 140 -85 146 -86 366 -221 430 -265 90 -62 176 -123 240 -169 36 -25 85
-61 110 -78 198 -141 635 -536 871 -789 124 -134 305 -344 384 -449 28 -36 52
-67 55 -70 27 -26 273 -389 390 -575 219 -349 445 -844 602 -1320 92 -279 144
-480 212 -815 90 -441 123 -841 113 -1385 -7 -457 -48 -763 -176 -1315 -37
-162 -148 -514 -218 -695 -153 -393 -223 -551 -377 -840 -204 -385 -435 -726
-752 -1110 -119 -144 -545 -574 -668 -675 -44 -36 -100 -83 -125 -106 -79 -71
-379 -293 -541 -399 -146 -96 -346 -219 -539 -329 -231 -132 -643 -317 -921
-414 -63 -23 -154 -54 -201 -71 -328 -117 -820 -229 -1184 -270 -239 -27 -457
-43 -465 -35 -13 13 13 160 45 264 120 378 358 699 681 918 87 60 278 155 372
186 202 68 204 68 917 76 555 6 661 10 722 24 306 71 544 210 720 421 141 169
208 338 219 550 8 135 -11 222 -86 410 -29 71 -54 151 -57 180 -5 50 -3 57 31
104 21 28 50 60 64 72 15 11 84 74 155 140 124 118 127 121 127 163 0 24 -11
92 -25 152 -32 138 -47 233 -41 260 7 25 170 191 284 286 45 39 82 77 82 85 0
8 -9 67 -21 131 -15 88 -21 164 -22 307 -2 186 -1 191 25 247 29 63 97 142
141 165 17 8 91 28 166 43 169 35 232 59 326 121 191 128 325 359 325 560 0
146 -53 257 -383 801 -212 349 -183 301 -259 423 -173 277 -405 673 -458 780
-65 131 -85 197 -100 323 -15 133 -5 186 91 492 37 117 49 209 49 383 0 222
-27 350 -150 712 -138 404 -171 498 -200 570 -4 11 -18 47 -30 80 -104 286
-271 608 -420 810 -176 238 -427 494 -660 672 -52 40 -133 102 -179 138 -47
36 -88 65 -92 65 -3 0 -12 13 -19 29 -10 24 -10 95 -1 235 1 10 -5 12 146 -55z
m-2170 -3 c83 -9 179 -21 215 -26 36 -6 90 -15 120 -19 67 -11 75 -13 280 -63
374 -91 685 -209 985 -371 97 -53 217 -126 225 -137 3 -3 34 -26 70 -50 293
-197 581 -486 755 -755 120 -186 234 -421 310 -635 20 -58 59 -168 87 -245
169 -473 213 -617 243 -800 8 -49 11 -93 6 -98 -4 -4 -23 -1 -42 7 -19 8 -55
24 -80 35 -240 105 -709 200 -994 201 -206 0 -463 -53 -608 -126 -173 -88
-259 -162 -874 -758 -164 -159 -327 -311 -362 -337 l-64 -49 -1213 4 -1212 4
-38 -40 c-54 -55 -148 -125 -214 -158 -79 -40 -233 -80 -308 -80 -106 0 -280
32 -340 63 -15 7 -52 26 -82 42 -71 37 -205 172 -254 254 -65 112 -113 292
-104 397 l3 44 -1322 0 c-727 0 -1324 4 -1327 8 -14 22 99 277 140 319 l23 23
1283 0 c706 0 1289 0 1295 0 7 0 24 19 39 41 36 58 149 164 214 203 140 82
210 100 380 100 165 0 216 -12 353 -78 82 -41 204 -144 262 -224 l31 -44 723
2 722 1 32 -22 c47 -33 182 -154 351 -313 82 -78 154 -146 160 -151 43 -40 57
-44 160 -39 118 7 126 11 229 110 39 39 144 137 232 219 258 239 635 603 635
613 0 11 -676 671 -687 672 -7 0 -13 4 -13 9 0 5 -6 11 -14 14 -8 3 -1286 7
-2840 8 -1646 1 -2826 6 -2826 11 0 10 33 50 183 224 l98 114 2565 -3 c1913
-2 2564 0 2564 8 0 13 -101 112 -285 279 -66 60 -203 189 -305 286 -102 98
-216 206 -254 241 l-68 64 -302 5 -301 5 -3 154 c-1 85 1 158 6 163 15 15 751
10 772 -5 31 -22 154 -131 250 -222 235 -222 418 -393 471 -439 71 -61 269
-247 417 -391 85 -82 164 -154 175 -158 27 -10 37 -25 37 -57 0 -80 111 -220
206 -260 73 -32 170 -27 250 10 120 58 186 152 192 278 4 73 -1 99 -41 180
-51 106 -217 191 -344 176 -46 -6 -51 -4 -98 37 -60 53 -325 309 -527 510
l-148 146 0 141 c0 128 -2 147 -24 196 -43 96 -123 165 -236 202 -14 5 -365
11 -780 14 l-755 5 -3 139 c-1 77 2 144 7 149 9 9 135 23 351 37 203 13 1011
4 1185 -14z m-1724 -514 c57 -27 130 -103 160 -168 42 -92 36 -207 -18 -301
-33 -59 -78 -100 -143 -131 -74 -36 -191 -37 -262 -3 -54 26 -158 132 -158
162 0 10 -4 19 -9 19 -5 0 -11 9 -14 20 -5 20 -14 20 -811 20 -710 0 -806 2
-806 15 0 8 6 15 13 15 7 0 22 8 33 18 17 16 149 118 228 176 16 11 41 31 54
44 l25 22 650 0 c632 -1 650 0 663 19 16 22 87 66 142 87 54 20 194 13 253
-14z m709 -682 c32 -16 81 -52 107 -78 40 -40 51 -59 62 -107 23 -102 -13
-215 -89 -279 -120 -101 -279 -98 -385 8 -28 28 -59 65 -69 81 l-17 30 -1597
3 c-935 2 -1598 6 -1600 12 -2 5 8 15 22 22 13 7 69 56 123 108 54 53 120 113
146 134 l48 39 812 -1 c447 -1 934 -7 1082 -13 167 -7 406 -8 626 -4 324 6
358 5 366 -9 8 -15 13 -14 39 9 25 23 76 50 124 68 8 3 43 6 78 6 51 1 74 -5
122 -29z m1259 -1378 c74 -35 170 -131 206 -206 59 -121 42 -287 -42 -413 -44
-67 -82 -99 -163 -137 -59 -27 -75 -30 -165 -30 -92 0 -105 2 -167 32 -114 55
-205 177 -223 299 -4 24 -11 45 -15 48 -5 3 -1228 6 -2717 6 -1490 0 -2715 4
-2722 8 -8 6 -10 14 -5 22 28 47 184 280 202 303 11 15 25 25 31 22 5 -3 11 1
15 9 5 13 325 15 2694 17 1929 2 2693 6 2703 14 15 11 83 31 134 38 70 10 178
-5 234 -32z m2131 -852 c52 -5 115 -17 140 -26 25 -9 56 -18 68 -19 49 -7 254
-80 259 -92 3 -7 -26 -55 -64 -106 -37 -50 -81 -112 -96 -136 l-29 -43 -61 6
c-88 9 -190 -6 -367 -52 -274 -71 -446 -140 -647 -258 -234 -137 -334 -220
-744 -618 -102 -100 -219 -212 -260 -251 -162 -152 -472 -451 -831 -802 -114
-112 -211 -203 -216 -203 -5 0 -66 56 -136 125 l-127 125 -344 0 c-217 0 -345
-4 -345 -10 0 -5 25 -21 56 -36 61 -29 174 -129 229 -203 75 -104 145 -289
145 -387 l0 -34 341 0 342 0 131 -125 c199 -189 467 -452 1008 -990 271 -270
512 -507 536 -528 l42 -38 0 -878 c0 -483 -3 -992 -7 -1132 l-6 -254 -1066 1
-1066 2 0 167 0 168 883 -1 c679 -1 884 2 887 11 3 7 6 227 8 490 l3 478 -50
46 c-28 26 -119 112 -201 192 -83 80 -184 177 -225 216 -41 38 -233 226 -426
417 -205 204 -359 348 -369 348 -10 0 -28 -9 -39 -19 -12 -11 -50 -34 -86 -53
-62 -32 -70 -33 -175 -33 -98 0 -116 3 -167 27 -141 66 -248 224 -248 366 0
179 109 338 269 394 162 58 326 16 446 -113 58 -64 88 -129 100 -219 10 -84
12 -87 53 -94 63 -10 176 -97 367 -285 99 -97 256 -248 349 -336 373 -353 370
-350 386 -340 6 4 10 63 10 147 l0 142 -202 201 c-650 645 -1253 1238 -1276
1253 -23 15 -53 16 -256 14 -127 -1 -273 -2 -323 -2 l-93 0 -2 -1726 -3 -1727
-174 -4 c-139 -4 -175 -2 -182 8 -5 8 -9 725 -9 1594 l0 1581 -162 -4 c-90 -2
-182 1 -206 6 -30 7 -44 7 -50 -2 -4 -6 -5 -225 -3 -486 l3 -475 23 -20 c36
-31 94 -123 106 -168 23 -87 -6 -202 -70 -270 -14 -16 -48 -41 -76 -55 -43
-23 -62 -26 -140 -26 -75 0 -97 4 -130 23 -99 57 -146 133 -153 248 -4 78 7
127 44 183 l24 36 1 655 0 655 -31 78 c-77 196 -79 366 -5 548 62 153 222 310
360 353 30 10 54 20 52 22 -10 10 -515 5 -553 -6 -89 -24 -159 -107 -190 -226
-11 -40 -14 -257 -14 -1108 0 -719 -4 -1081 -11 -1129 -30 -197 -147 -370
-309 -461 -138 -77 -31 -71 -1485 -74 l-1300 -3 -36 53 c-39 56 -119 200 -119
214 0 4 546 8 1213 9 1365 0 1347 -1 1475 69 72 40 101 68 156 147 67 99 65
60 66 1264 0 717 4 1100 11 1140 5 32 30 100 54 150 35 73 57 103 104 145 136
124 253 154 576 148 110 -2 561 -2 1002 -1 l802 2 85 80 c47 44 90 80 96 80
23 0 7 19 -46 54 -67 45 -144 120 -144 140 0 8 -12 17 -27 20 -16 3 -267 4
-559 3 l-530 -3 -44 -48 c-61 -66 -166 -116 -247 -116 -89 0 -202 51 -272 124
l-35 36 -445 0 c-491 0 -508 -2 -582 -61 -44 -35 -95 -104 -112 -152 -8 -22
-13 -251 -17 -762 l-5 -730 -167 -3 -167 -2 -7 23 c-3 14 -4 375 -2 803 5 862
3 839 71 953 78 131 221 227 372 250 42 6 270 11 552 11 l481 1 18 37 c26 55
51 85 102 124 101 76 222 97 328 57 73 -27 126 -76 170 -155 l36 -64 518 0
519 0 24 54 c114 248 438 303 620 106 55 -59 105 -150 114 -208 l6 -33 121
118 c67 64 195 190 286 278 91 89 228 219 305 290 77 71 233 216 346 323 224
208 265 243 349 290 84 48 244 94 365 105 82 8 263 6 355 -3z m773 -642 c12
-309 42 -394 304 -838 27 -47 81 -139 120 -205 86 -148 209 -353 274 -460 70
-115 103 -168 226 -370 60 -99 133 -216 161 -260 90 -139 112 -191 112 -268 0
-73 -14 -113 -59 -160 -35 -38 -52 -47 -117 -57 -64 -11 -176 5 -329 46 -137
37 -292 39 -380 4 -84 -32 -151 -78 -213 -144 -30 -31 -62 -56 -71 -56 -31 0
-105 75 -135 136 -25 50 -29 70 -29 149 -1 106 12 149 67 224 42 58 194 209
335 332 46 41 88 81 94 90 7 12 -1 29 -37 75 -26 32 -65 84 -88 114 -51 66
-131 150 -144 150 -14 0 -414 -381 -509 -484 -153 -167 -193 -285 -182 -547 6
-158 21 -222 83 -348 81 -165 223 -283 381 -316 116 -25 165 -21 381 32 l22 5
1 -178 c2 -364 -1 -406 -22 -451 -51 -107 -98 -132 -245 -133 -327 0 -753
-202 -892 -423 -48 -76 -74 -135 -63 -141 4 -3 32 1 62 9 30 8 141 35 247 60
106 26 223 55 260 66 95 27 212 40 255 28 47 -13 84 -43 118 -98 35 -55 38
-115 8 -181 -54 -119 -121 -154 -284 -148 l-100 3 0 -290 c1 -322 0 -313 75
-510 55 -140 62 -220 30 -315 -27 -80 -57 -128 -129 -203 -114 -119 -242 -196
-391 -235 -138 -37 -455 -51 -485 -21 -7 7 -11 423 -13 1197 -2 653 -3 1193
-2 1200 0 7 -412 425 -915 929 -503 504 -915 923 -914 932 0 9 46 57 102 106
56 50 200 187 322 306 121 118 253 246 294 285 69 65 141 135 396 383 61 59
154 147 208 195 l97 89 78 -36 c163 -77 302 -107 490 -107 137 0 230 16 365
62 48 16 95 28 103 26 11 -2 27 -34 45 -88 16 -47 34 -95 41 -108 8 -15 9 -30
2 -46 -8 -21 -140 -144 -247 -230 l-47 -39 -348 2 c-191 0 -353 -3 -360 -7 -7
-5 -120 -115 -251 -245 l-238 -237 -69 0 c-143 0 -262 -66 -312 -173 -64 -138
-42 -274 64 -387 63 -68 128 -94 229 -95 66 0 90 5 135 26 110 52 190 168 198
286 l4 62 185 181 186 180 406 0 406 0 155 153 c85 84 215 209 288 276 91 86
132 130 132 145 0 12 -45 112 -99 222 -156 315 -271 580 -271 625 0 5 35 42
78 82 42 40 137 130 211 200 74 70 138 127 141 127 4 0 10 -73 13 -162z
m-8322 -56 c1 -37 3 -96 5 -132 3 -36 2 -75 -1 -87 l-5 -23 -601 0 c-500 0
-601 2 -605 14 -3 7 2 38 11 67 21 69 53 166 67 201 l10 27 559 0 559 1 1 -68z
m499 33 c62 -33 110 -121 110 -203 0 -45 -32 -117 -68 -155 -35 -37 -113 -77
-151 -77 -40 0 -120 35 -154 68 -64 61 -84 126 -66 211 19 88 78 150 164 172
39 10 133 1 165 -16z m904 -28 c19 -15 48 -44 63 -64 25 -32 28 -45 28 -107 0
-57 -5 -82 -26 -121 -45 -88 -157 -126 -291 -100 l-38 7 0 -763 c0 -420 -3
-1098 -7 -1507 l-6 -743 -25 -22 c-48 -44 -172 -221 -193 -276 -17 -45 -21
-80 -22 -186 -1 -71 0 -152 3 -180 l4 -50 -94 -6 c-52 -4 -446 -7 -876 -8
l-781 -1 -20 23 c-28 30 -113 219 -113 252 0 7 210 9 618 7 374 -2 646 0 690
6 146 21 190 62 278 267 48 112 75 154 151 237 l43 47 2 426 c0 234 1 431 2
438 2 19 -123 23 -529 17 -198 -3 -364 -2 -369 2 -5 4 8 26 28 48 50 55 104
141 131 209 l23 56 345 3 345 2 5 28 c4 15 5 477 4 1027 l-2 1000 160 -4 160
-3 55 37 c54 37 56 37 137 33 69 -4 87 -8 117 -31z m-996 -560 c12 -14 11
-291 -1 -304 -7 -6 -1747 -6 -1754 1 -4 3 56 296 62 306 4 6 322 10 844 10
662 0 841 -3 849 -13z m-5 -711 c5 -81 5 -151 2 -155 -11 -11 -646 -2 -715 10
-40 7 -112 9 -190 5 -187 -10 -871 -22 -881 -16 -8 5 6 284 15 298 2 4 399 7
883 7 l878 0 8 -149z m-798 -369 c162 -51 252 -193 220 -347 -26 -125 -106
-204 -240 -235 -158 -37 -335 116 -335 290 0 123 91 244 213 286 63 21 90 23
142 6z m-757 -73 l193 -7 -6 -31 c-7 -31 -11 -48 -38 -136 l-14 -45 -184 0
-184 0 -3 104 c-3 117 0 135 25 127 10 -2 105 -8 211 -12z m1742 -111 l0 -113
-162 0 c-90 0 -200 3 -245 7 l-82 6 -12 56 c-9 48 -22 88 -46 148 -3 8 66 11
271 10 l276 -1 0 -113z m-1579 -313 c10 -6 19 -16 19 -22 0 -31 126 -193 170
-218 8 -5 12 -11 8 -15 -3 -4 -132 -7 -285 -8 l-278 -2 -6 46 c-4 26 -10 85
-14 133 l-7 85 148 4 c82 1 166 4 187 5 21 1 47 -3 58 -8z m1336 -624 c18 -11
37 -32 43 -47 8 -18 11 -123 8 -335 -3 -296 -4 -311 -25 -350 -28 -52 -72 -90
-121 -104 -24 -6 -273 -10 -694 -10 -616 0 -658 1 -667 18 -5 9 -27 71 -49
137 -22 66 -43 128 -47 138 -7 16 25 17 576 17 555 0 585 1 613 19 39 26 66
70 66 110 0 26 -9 42 -39 72 -22 23 -49 39 -62 39 -13 1 -294 2 -623 3 l-600
2 -8 30 c-5 17 -18 75 -28 131 -10 55 -22 112 -25 125 l-6 24 828 0 c801 0
829 -1 860 -19z m1491 -667 c2 -239 0 -467 -3 -506 l-7 -73 -88 0 c-97 0 -120
-5 -120 -26 0 -14 -31 -73 -58 -110 -25 -34 -112 -74 -175 -81 -44 -5 -64 -1
-101 16 -53 26 -108 80 -133 131 -24 47 -22 133 4 190 52 114 183 180 284 145
23 -8 43 -15 45 -15 2 0 4 166 4 369 0 294 3 372 13 383 10 10 53 13 173 12
l159 -1 3 -434z m3152 -676 c0 -5 21 -30 46 -58 24 -27 48 -55 52 -60 4 -6 33
-40 64 -76 32 -37 55 -69 52 -72 -3 -3 -177 -6 -385 -7 l-379 -1 0 64 c0 35
-3 98 -6 140 l-7 77 282 0 c154 0 281 -3 281 -7z m467 -553 c147 -138 376
-369 389 -392 11 -21 14 -81 14 -290 0 -145 -4 -269 -9 -277 -12 -19 -326 -30
-344 -12 -9 9 -12 76 -12 230 l0 218 -34 38 c-31 36 -53 57 -174 167 l-41 38
-409 2 -409 3 -1 158 c-1 86 2 158 6 160 5 1 226 2 492 2 l484 0 48 -45z
m-2342 16 c77 -1 143 -5 146 -9 11 -15 -1 -200 -17 -262 -8 -32 -25 -79 -37
-104 -33 -69 -131 -160 -212 -200 -136 -65 -16 -61 -1657 -61 -823 0 -1503 3
-1510 6 -32 14 -248 304 -248 334 0 7 478 10 1558 10 l1557 0 51 24 c83 38
133 104 154 203 16 74 16 74 47 67 16 -4 91 -8 168 -8z m1733 -818 l-3 -163
-202 -3 -203 -2 0 27 c-1 16 -2 90 -3 166 l-2 137 208 0 207 0 -2 -162z
m-2367 -830 c55 -29 109 -83 134 -133 15 -30 20 -61 20 -125 0 -77 -3 -90 -31
-140 -53 -94 -137 -140 -257 -140 -127 0 -237 93 -264 221 -30 146 70 310 207
340 56 12 143 2 191 -23z m-1038 -34 l438 -7 -3 -136 -3 -136 -263 -3 -262 -2
-58 31 c-67 35 -200 129 -328 230 -38 30 -34 43 11 35 16 -3 227 -8 468 -12z
m3921 -300 c-1 -5 -23 -22 -49 -37 -55 -32 -248 -182 -315 -243 -25 -23 -55
-50 -67 -61 -41 -34 -175 -197 -228 -278 -96 -147 -185 -332 -241 -505 -14
-44 -30 -82 -35 -85 -11 -8 -11 533 0 630 20 164 111 308 281 444 148 118 178
135 245 141 97 8 410 3 409 -6z m-2665 -505 c-1 -82 -5 -149 -9 -149 -8 0
-119 39 -155 55 -16 7 -50 21 -75 31 -41 17 -184 89 -235 118 -16 9 -3 12 75
18 105 7 194 20 255 38 22 6 51 14 65 17 14 3 34 12 44 19 11 7 23 11 28 8 5
-3 8 -73 7 -155z"/>
<path d="M11483 15608 c-45 -32 -64 -71 -66 -131 -2 -100 48 -158 142 -165 48
-3 62 1 97 24 49 32 71 66 74 114 6 78 1 92 -45 137 -44 41 -48 43 -108 43
-49 0 -69 -5 -94 -22z"/>
<path d="M12185 15295 c-100 -29 -153 -73 -197 -162 -26 -54 -32 -77 -32 -132
0 -134 64 -238 179 -292 76 -37 184 -40 254 -9 24 11 50 20 57 20 8 0 38 -18
67 -40 29 -21 75 -56 102 -77 28 -21 67 -47 88 -58 24 -13 37 -27 37 -40 0
-11 6 -40 14 -65 33 -111 171 -144 261 -62 39 36 55 73 55 127 0 36 -6 50 -37
83 -57 59 -117 67 -218 31 -6 -2 -48 30 -94 71 -46 41 -104 93 -129 116 l-46
41 18 57 c40 125 -21 287 -130 351 -88 52 -168 65 -249 40z"/>
<path d="M12792 14171 c-139 -48 -211 -167 -199 -331 12 -174 131 -294 292
-294 75 -1 122 17 183 69 16 14 37 25 45 25 14 0 93 -44 147 -83 13 -9 34 -17
46 -17 25 0 34 -17 34 -68 0 -50 36 -98 92 -122 56 -24 80 -25 121 -4 53 25
80 69 85 133 3 46 0 62 -20 90 -47 70 -86 84 -183 66 -37 -6 -43 -4 -85 32
-25 22 -67 56 -95 75 -39 28 -49 40 -47 59 2 13 3 56 4 95 1 59 -3 78 -26 120
-39 71 -97 128 -148 144 -24 7 -47 17 -52 22 -18 15 -140 8 -194 -11z"/>
<path d="M12233 13619 c-51 -25 -68 -50 -76 -109 -19 -129 75 -222 191 -191
37 11 89 56 111 98 25 49 5 138 -41 179 -54 50 -116 58 -185 23z"/>
<path d="M7980 12682 c-110 -37 -172 -83 -225 -167 -41 -66 -55 -117 -55 -206
0 -127 41 -222 129 -302 90 -80 202 -116 300 -96 135 27 246 110 303 227 58
118 49 277 -23 385 -41 62 -101 115 -166 144 -74 34 -187 40 -263 15z"/>
<path d="M8900 12363 c-35 -2 -67 -8 -70 -13 -3 -4 -5 -46 -5 -92 l0 -83 703
-3 c386 -1 702 1 702 5 0 5 -44 50 -97 100 l-98 93 -535 -2 c-294 -1 -564 -3
-600 -5z"/>
<path d="M10829 13230 c-53 -28 -69 -59 -69 -134 0 -58 3 -69 30 -99 49 -56
135 -72 199 -36 104 58 108 198 7 267 -41 28 -116 29 -167 2z"/>
<path d="M10657 11318 c-59 -16 -94 -58 -102 -123 -16 -128 45 -195 164 -180
48 6 61 13 93 45 62 66 63 143 1 210 -29 33 -89 64 -113 59 -3 -1 -22 -6 -43
-11z"/>
<path d="M9067 9950 c-129 -33 -219 -139 -236 -278 -17 -143 53 -282 172 -344
52 -26 181 -37 229 -18 121 45 179 93 229 189 72 140 -8 356 -162 430 -49 24
-174 35 -232 21z"/>
<path d="M10217 8627 c-53 -32 -77 -72 -77 -130 0 -58 19 -98 64 -132 100 -76
231 -8 244 126 4 42 0 55 -24 90 -48 69 -136 89 -207 46z"/>
<path d="M12848 9996 c-116 -34 -193 -121 -216 -247 -13 -69 5 -159 44 -221
33 -52 55 -71 119 -105 97 -52 249 -28 344 53 78 67 118 193 92 289 -27 100
-116 201 -199 225 -61 18 -134 20 -184 6z"/>
<path d="M12280 9391 c-93 -30 -121 -64 -122 -150 -1 -80 15 -114 70 -151 56
-37 109 -39 172 -7 62 31 90 76 90 144 0 94 -52 158 -135 167 -27 3 -61 2 -75
-3z"/>
<path d="M12807 9095 c-103 -28 -168 -97 -208 -220 -41 -127 -12 -242 83 -331
112 -105 250 -119 383 -39 32 19 63 35 70 35 7 0 44 -19 81 -41 38 -23 80 -45
94 -49 20 -5 28 -17 41 -66 26 -94 28 -98 64 -123 41 -27 115 -32 156 -10 80
43 114 152 69 223 -39 64 -69 78 -158 74 l-77 -3 -92 68 -92 69 6 81 c4 69 2
91 -17 142 -58 155 -232 237 -403 190z"/>
<path d="M13082 7129 c-66 -33 -87 -70 -87 -156 0 -62 3 -75 25 -98 40 -43 77
-58 132 -53 84 9 139 65 145 150 5 67 -19 115 -73 144 -61 34 -93 37 -142 13z"/>
<path d="M13044 6426 c-42 -41 -44 -46 -44 -100 0 -72 19 -109 73 -141 55 -32
109 -33 160 -2 52 31 77 72 77 126 0 94 -69 161 -166 161 -54 0 -59 -2 -100
-44z"/>
</g>
</svg>
